<?xml version="1.0" encoding="UTF-8"?>
<svg id="_레이어_2" data-name="레이어_2" xmlns="http://www.w3.org/2000/svg" viewBox="0 0 207.19 174.53">
  <defs>
    <style>
      .cls-1 {
        fill: #ffe7a0;
      }

      .cls-2 {
        fill: #72727c;
      }

      .cls-3 {
        fill: #121214;
      }
    </style>
  </defs>
  <g id="Capa_1">
    <g>
      <g>
        <path class="cls-2" d="M20.05,122.39h0c-11.07,0-20.05-8.98-20.05-20.05V20.05C0,8.98,8.98,0,20.05,0h167.09c11.07,0,20.05,8.98,20.05,20.05v82.29c0,11.07-8.98,20.05-20.05,20.05h0"/>
        <g>
          <path class="cls-1" d="M32.2,0h30.6v56.1h-30.6V0Z"/>
          <path class="cls-1" d="M88.3,0h30.6v56.1h-30.6V0Z"/>
          <path class="cls-1" d="M144.39,0h30.6v56.1h-30.6V0Z"/>
        </g>
      </g>
      <path class="cls-3" d="M174.71,102.39l-5.91-5.91c-.13-.13-.27-.25-.41-.37,0,0-.02-.01-.03-.02-.09-.07-.18-.14-.27-.21-.07-.05-.14-.11-.22-.16-.09-.06-.19-.11-.28-.17-.08-.05-.16-.1-.24-.14-.08-.04-.16-.08-.25-.12-.1-.05-.2-.1-.3-.14-.06-.03-.13-.04-.19-.07-.12-.05-.25-.09-.37-.13-.04-.01-.09-.02-.14-.03-.15-.04-.29-.08-.44-.11-.03,0-.07,0-.1-.02-.16-.03-.32-.05-.48-.07-.04,0-.07,0-.11,0-.16-.01-.31-.02-.47-.02-.05,0-.11,0-.16,0-.14,0-.28,0-.42.02-.08,0-.15.02-.22.03-.12.02-.24.03-.35.05-.09.02-.17.04-.26.06-.1.02-.21.05-.31.08-.08.02-.17.06-.25.09-.1.04-.21.07-.31.11-.07.03-.14.07-.21.1-.11.05-.22.1-.33.15-.06.03-.11.07-.17.1-.12.07-.24.13-.35.21-.05.03-.09.07-.14.1-.12.08-.24.17-.36.26-.04.04-.09.08-.13.11-.11.1-.22.19-.33.3,0,0-.01.01-.02.02-.11.11-.22.23-.32.35-.02.02-.03.03-.05.05l-9.32,11.18c-.14.17-.29.33-.45.48-.03.03-.06.05-.08.07-.13.12-.27.24-.41.35-.04.03-.08.05-.12.08-.13.1-.27.2-.41.28-.05.03-.09.05-.14.08-.14.08-.27.15-.42.22-.06.03-.11.05-.17.08-.13.06-.27.12-.41.17-.07.02-.13.05-.2.07-.13.04-.27.08-.41.12-.07.02-.14.04-.21.05-.14.03-.28.05-.43.07-.07,0-.13.02-.2.03-.19.02-.37.03-.56.03-.02,0-.05,0-.07,0-.41,0-.82-.04-1.21-.12-.05,0-.09-.02-.14-.04-.15-.03-.29-.07-.44-.11-.07-.02-.13-.05-.2-.07-.12-.04-.24-.08-.36-.13-.08-.03-.15-.07-.22-.11-.11-.05-.21-.1-.31-.15-.11-.06-.21-.12-.31-.19-.08-.05-.16-.09-.23-.14-.15-.1-.3-.22-.45-.34-.04-.03-.08-.07-.12-.11-.12-.1-.23-.21-.34-.32-.06-.06-.11-.12-.16-.18-.09-.1-.17-.19-.25-.29-.05-.07-.1-.13-.15-.2-.08-.1-.15-.21-.22-.32-.04-.07-.08-.14-.12-.2-.07-.12-.13-.24-.19-.36-.03-.06-.06-.13-.09-.2-.06-.13-.11-.27-.16-.41-.02-.06-.05-.12-.07-.18-.05-.15-.09-.3-.13-.45-.01-.06-.03-.11-.04-.17-.03-.16-.06-.32-.08-.49,0-.05-.02-.1-.02-.15-.02-.21-.04-.43-.04-.65,0,0,0,0,0,0v-45.27c0-3.36-2.72-6.09-6.09-6.09h-2.43c-3.36,0-6.09,2.72-6.09,6.09v31.65c0,3.36-2.72,6.09-6.09,6.09h-2.43c-.21,0-.41-.01-.62-.03-.1,0-.19-.03-.28-.04-2.93-.44-5.18-2.96-5.18-6.01v-41.38c0-3.36-2.72-6.09-6.09-6.09h-2.43c-3.36,0-6.09,2.72-6.09,6.09v41.38c0,3.36-2.72,6.09-6.09,6.09h-2.43c-3.36,0-6.09-2.72-6.09-6.09v-31.65c0-3.36-2.72-6.09-6.09-6.09h-2.43c-3.36,0-6.09,2.72-6.09,6.09v41.38c0,3.36-2.72,6.09-6.09,6.09h-2.43c-3.36,0-6.09-2.72-6.09-6.09v-17.04c0-3.36-2.72-6.09-6.09-6.09h-2.43c-3.36,0-6.09,2.72-6.09,6.09v40.68h0c0,1.25.38,2.47,1.1,3.49l31.16,44.52c1.14,1.63,3,2.6,4.99,2.6h42.72c1.78,0,3.46-.78,4.62-2.13l52.94-61.76c1.04-1.21,1.52-2.71,1.46-4.19-.06-1.48-.65-2.95-1.78-4.07Z"/>
    </g>
  </g>
</svg>