<?xml version="1.0" encoding="UTF-8"?>
<svg id="_레이어_2" data-name="레이어_2" xmlns="http://www.w3.org/2000/svg" viewBox="0 0 307.21 494.93">
  <defs>
    <style>
      .cls-1 {
        fill: #d6ffe1;
      }

      .cls-2 {
        fill: #72727c;
      }

      .cls-3 {
        fill: #121214;
      }
    </style>
  </defs>
  <g id="Capa_1">
    <g>
      <path class="cls-2" d="M76.81,443.73v-16.6c0-4.94-2.7-9.53-7.1-12.09l-36.81-21.43c-6.52-4.17-9.05-12.19-6.02-19.14L176.98,39.71C186.45,14.36,210.09.79,236.63.03c31.49-.85,60.59,19.88,68.35,50.52,11.35,45.06-22.1,85.5-65.19,86.01l39.59,190.03c1.28,6.14-1.37,12.46-6.83,15.96-18.6,11.86-59.2,44.37-59.2,101.2H76.81Z"/>
      <path class="cls-3" d="M213.34,443.73v42.67c0,4.71-3.82,8.53-8.53,8.53h-119.47c-4.71,0-8.53-3.82-8.53-8.53v-42.67h136.53Z"/>
      <g>
        <circle class="cls-1" cx="204.81" cy="93.87" r="17.07"/>
        <circle class="cls-1" cx="170.67" cy="170.67" r="17.07"/>
        <circle class="cls-1" cx="136.54" cy="247.47" r="17.07"/>
        <circle class="cls-1" cx="102.41" cy="324.27" r="17.07"/>
      </g>
      <g>
        <path class="cls-3" d="M161.77,73.53c-4.42,9.37-13.79,14.83-23.51,14.83-3.81,0-7.54-.78-11.19-2.52l-15.62-7.46c-4.33-2.08-6.16-7.29-4.16-11.62l14.92-31.31c2.08-4.33,7.29-6.16,11.62-4.08l15.62,7.46c13.01,6.16,18.47,21.68,12.31,34.7h0Z"/>
        <path class="cls-3" d="M55.25,310.85c-4.42,9.37-13.79,14.83-23.51,14.83-3.73,0-7.54-.79-11.19-2.52l-15.62-7.46c-4.33-2.08-6.16-7.29-4.08-11.62l14.92-31.32c2.08-4.25,7.2-6.16,11.54-4.08l15.7,7.46c12.93,6.16,18.47,21.68,12.23,34.7h0Z"/>
        <path class="cls-3" d="M124.99,155.5c-4.42,9.37-13.79,14.83-23.51,14.83-3.73,0-7.54-.78-11.19-2.52l-15.62-7.46c-4.33-2.08-6.16-7.29-4.16-11.62l15.01-31.31c2-4.25,7.2-6.16,11.54-4.08l15.62,7.46c13.01,6.16,18.47,21.68,12.31,34.7h0Z"/>
        <path class="cls-3" d="M89.78,233.92c-4.42,9.37-13.79,14.83-23.42,14.83-3.81,0-7.54-.78-11.19-2.52l-15.7-7.46c-4.33-2.08-6.16-7.2-4.08-11.54l14.92-31.31c2.08-4.33,7.2-6.16,11.54-4.16l15.7,7.46c12.93,6.25,18.47,21.77,12.23,34.7h0Z"/>
      </g>
    </g>
  </g>
</svg>