<svg width="25" height="26" viewBox="0 0 25 26" fill="none" xmlns="http://www.w3.org/2000/svg">
<g clip-path="url(#clip0_1724_16542)">
<path d="M4.04635 0H15.8059C18.0403 0 19.8523 1.74365 19.8523 3.89484V22.1057C19.8523 24.2564 18.0408 26.0005 15.8059 26.0005H4.04635C1.81201 26.0005 0 24.2569 0 22.1057V3.89484C0 1.74365 1.81148 0 4.04635 0Z" fill="#121214"/>
<path d="M14.0942 6.99837V6.99785C14.0942 6.4175 13.6055 5.94702 13.0025 5.94702L2.98795 5.94702C2.38502 5.94702 1.89624 6.4175 1.89624 6.99785V6.99837C1.89624 7.57873 2.38502 8.0492 2.98795 8.0492H13.0025C13.6055 8.0492 14.0942 7.57873 14.0942 6.99837Z" fill="#72727C"/>
<path d="M16.6631 19.0058V19.0053C16.6631 18.4249 16.1743 17.9545 15.5714 17.9545H5.5568C4.95386 17.9545 4.46509 18.4249 4.46509 19.0053V19.0058C4.46509 19.5862 4.95386 20.0567 5.5568 20.0567H15.5714C16.1743 20.0567 16.6631 19.5862 16.6631 19.0058Z" fill="#72727C"/>
<path d="M9.11165 11.9508H3.25382C2.65088 11.9508 2.16211 12.4213 2.16211 13.0016V13.0022C2.16211 13.5825 2.65088 14.053 3.25382 14.053H9.11165C9.71458 14.053 10.2034 13.5825 10.2034 13.0022V13.0016C10.2034 12.4213 9.71458 11.9508 9.11165 11.9508Z" fill="#72727C"/>
<path d="M24.361 1.80663L24.7099 2.14246C25.0937 2.51286 25.0937 3.11282 24.7099 3.48373L23.6638 4.49072L23.704 4.52992C24.0668 4.87917 24.0668 5.44457 23.704 5.79381L23.2741 6.20806C23.1 6.37572 22.8636 6.47012 22.6176 6.47012C22.3716 6.47012 22.1347 6.37572 21.9606 6.20806L21.9198 6.16885L15.7378 12.121C15.674 12.1829 15.6011 12.235 15.5212 12.2763L11.5403 14.3398C11.2836 14.4729 10.9663 14.4285 10.7594 14.2299V14.2278C10.5531 14.0292 10.5064 13.7238 10.6453 13.4767L12.7853 9.64481C12.8281 9.56794 12.8823 9.49778 12.9466 9.43639L19.1292 3.48631L19.0885 3.44711C18.9143 3.27945 18.8162 3.05195 18.8162 2.81516C18.8162 2.57838 18.9143 2.35036 19.0885 2.1827L19.5188 1.76897C19.8816 1.42024 20.469 1.42024 20.8319 1.76897L20.8726 1.80818L21.9188 0.801194C22.3036 0.431829 22.9269 0.431829 23.3117 0.801194L24.3605 1.80818L24.361 1.80663Z" fill="#9C9C9C"/>
<path d="M7.75356 5.49967C7.40198 5.16126 6.92124 4.97709 6.42389 4.99154C6.17307 5.00701 5.92707 4.91777 5.74968 4.7465C5.57174 4.57523 5.47903 4.33896 5.49511 4.09753C5.49511 3.85043 5.28716 3.65027 5.03098 3.65027C4.7748 3.65027 4.56632 3.85043 4.56632 4.09753V8.19769C4.06254 8.0259 3.49766 8.1461 3.11714 8.51289C2.71894 8.89618 2.59942 9.47344 2.81487 9.97436C3.03085 10.4758 3.53839 10.8023 4.1022 10.8023C4.87181 10.8023 5.49511 10.2024 5.49511 9.46158V5.6761C5.7813 5.82003 6.10125 5.89225 6.42389 5.88555C6.67471 5.87007 6.92017 5.95932 7.0981 6.13059C7.27603 6.30186 7.36875 6.53813 7.35267 6.77955C7.35267 7.02666 7.56062 7.22682 7.8168 7.22682C8.07298 7.22682 8.28146 7.02666 8.28146 6.77955C8.29593 6.30134 8.10513 5.83809 7.75356 5.49967Z" fill="#FFE7A0"/>
<path d="M17.0409 16.2273C16.6894 15.8889 16.2081 15.7047 15.7113 15.7192C15.4605 15.7346 15.2145 15.6454 15.0371 15.4741C14.8591 15.3029 14.7664 15.0666 14.7825 14.8252C14.7825 14.5786 14.5745 14.3784 14.3178 14.3784C14.0611 14.3784 13.8532 14.5786 13.8532 14.8252V18.9248C13.7079 18.8753 13.552 18.8485 13.389 18.8485C12.6194 18.8485 11.9956 19.4489 11.9956 20.1897C11.9956 20.9305 12.6194 21.531 13.389 21.531C14.1587 21.531 14.7825 20.9305 14.7825 20.1897V16.4043C15.0687 16.5482 15.3881 16.6199 15.7113 16.6137C15.9621 16.5982 16.2076 16.6875 16.3855 16.8587C16.5634 17.03 16.6561 17.2663 16.6401 17.5077C16.6401 17.7548 16.848 17.9545 17.1042 17.9545C17.3604 17.9545 17.5688 17.7543 17.5688 17.5077C17.5833 17.0295 17.3925 16.5662 17.0409 16.2278V16.2273Z" fill="#FFE7A0"/>
<path d="M15.6416 12.2014C15.6036 12.2298 15.5629 12.2551 15.5211 12.2772L12.5026 13.8414C12.5434 13.488 12.4153 13.1362 12.1543 12.8849C11.8933 12.6337 11.5278 12.5104 11.1606 12.5496L12.7862 9.64422C12.8092 9.60347 12.8355 9.56478 12.8649 9.52815C13.2353 9.52196 13.5922 9.66176 13.8532 9.91506C14.1142 10.1683 14.2573 10.5124 14.2487 10.8694C14.6191 10.8612 14.9771 10.9984 15.2402 11.2496C15.5034 11.5014 15.6481 11.8444 15.6422 12.2014H15.6416Z" fill="#FFE7A0"/>
<path d="M12.5022 13.8419L11.5408 14.3381C11.2846 14.4723 10.9678 14.4284 10.7604 14.2308L10.7556 14.2262C10.5503 14.0271 10.5048 13.7217 10.6441 13.4751L11.1592 12.5501C11.5263 12.5109 11.8918 12.6342 12.1528 12.8854C12.4143 13.1367 12.5424 13.4885 12.5012 13.8419H12.5022Z" fill="#72727C"/>
<path d="M23.7033 5.79632L23.2761 6.21211C23.1019 6.37977 22.8656 6.47418 22.619 6.47418C22.3725 6.47418 22.1362 6.37977 21.962 6.21211L19.129 3.48521L19.0872 3.44497C18.913 3.27731 18.8149 3.04981 18.8149 2.81251C18.8149 2.57521 18.913 2.34771 19.0872 2.18005L19.5192 1.7689C19.6933 1.60072 19.9297 1.50684 20.1762 1.50684C20.4228 1.50684 20.6591 1.60124 20.8333 1.7689L20.8751 1.80914L23.6614 4.49116L23.7033 4.5314C23.8774 4.69906 23.9755 4.92656 23.9755 5.16386C23.9755 5.40116 23.8774 5.62866 23.7033 5.79632Z" fill="#7D7D87"/>
<path d="M24.7112 3.4852L23.6618 4.49115L20.8755 1.80913L21.9206 0.799052C22.1049 0.62056 22.3558 0.520996 22.6173 0.520996C22.8788 0.520996 23.1297 0.621075 23.314 0.799052L24.7117 2.14445C24.8966 2.32191 25.0006 2.56334 25.0006 2.81508C25.0006 3.06683 24.8966 3.30826 24.7117 3.48572L24.7112 3.4852Z" fill="#9C9C9C"/>
</g>
<defs>
<clipPath id="clip0_1724_16542">
<rect width="25" height="26" fill="white"/>
</clipPath>
</defs>
</svg>
