<?xml version="1.0" encoding="UTF-8"?>
<svg id="_레이어_2" data-name="레이어_2" xmlns="http://www.w3.org/2000/svg" viewBox="0 0 645.63 508.26">
  <defs>
    <style>
      .cls-1 {
        fill: #d6ffe1;
      }

      .cls-2, .cls-3 {
        fill: #72727c;
      }

      .cls-3, .cls-4 {
        fill-rule: evenodd;
      }

      .cls-4 {
        fill: #121214;
      }
    </style>
  </defs>
  <g id="Capa_1">
    <g>
      <path class="cls-4" d="M418.14,418.14c8.05-8.05,21.09-8.05,29.14,0l54.95,54.95c8.05,8.05,8.05,21.09,0,29.14-8.05,8.05-21.09,8.05-29.14,0l-54.95-54.95c-8.05-8.05-8.05-21.09,0-29.14Z"/>
      <path class="cls-4" d="M227.49,418.14c-8.05-8.05-21.09-8.05-29.14,0l-54.95,54.95c-8.05,8.05-8.05,21.09,0,29.14s21.09,8.05,29.14,0l54.95-54.95c8.05-8.05,8.05-21.09,0-29.14Z"/>
      <path class="cls-2" d="M322.81,109.89c-102.42,0-185.45,83.03-185.45,185.45s83.03,185.45,185.45,185.45,185.45-83.03,185.45-185.45-83.03-185.45-185.45-185.45Z"/>
      <circle class="cls-1" cx="322.81" cy="295.34" r="103.03"/>
      <path class="cls-4" d="M570.08,0c11.38,0,20.61,9.23,20.61,20.61v467.05c0,11.38-9.23,20.61-20.61,20.61s-20.61-9.23-20.61-20.61V20.61c0-11.38,9.23-20.61,20.61-20.61Z"/>
      <path class="cls-4" d="M75.55,0c11.38,0,20.61,9.23,20.61,20.61v467.05c0,11.38-9.23,20.61-20.61,20.61s-20.61-9.23-20.61-20.61V20.61c0-11.38,9.23-20.61,20.61-20.61Z"/>
      <g>
        <g>
          <path class="cls-3" d="M494.52,20.61c0-11.38,9.23-20.61,20.61-20.61h109.89c11.38,0,20.61,9.23,20.61,20.61s-9.23,20.61-20.61,20.61h-109.89c-11.38,0-20.61-9.23-20.61-20.61Z"/>
          <path class="cls-3" d="M494.52,103.03c0-11.38,9.23-20.61,20.61-20.61h109.89c11.38,0,20.61,9.23,20.61,20.61s-9.23,20.61-20.61,20.61h-109.89c-11.38,0-20.61-9.23-20.61-20.61Z"/>
        </g>
        <path class="cls-2" d="M20.61,0C9.23,0,0,9.23,0,20.61s9.23,20.61,20.61,20.61h109.89c11.38,0,20.61-9.23,20.61-20.61S141.88,0,130.5,0H20.61Z"/>
        <path class="cls-2" d="M20.61,82.42c-11.38,0-20.61,9.23-20.61,20.61s9.23,20.61,20.61,20.61h109.89c11.38,0,20.61-9.23,20.61-20.61s-9.23-20.61-20.61-20.61H20.61Z"/>
      </g>
    </g>
  </g>
</svg>