<svg width="24" height="26" viewBox="0 0 24 26" fill="none" xmlns="http://www.w3.org/2000/svg">
<g clip-path="url(#clip0_1724_16557)">
<path d="M3.06966 0C1.37444 0 0 1.36225 0 3.04245V22.9576C0 24.6377 1.37444 26 3.06966 26H20.9303C22.6256 26 24 24.6377 24 22.9576V3.04245C24 1.36225 22.6256 0 20.9303 0H3.06966Z" fill="#9C9C9C"/>
<path d="M3.06966 0C1.37444 0 0 1.36225 0 3.04245V9.40425H24V3.04245C24 1.36225 22.6256 0 20.9303 0H3.06966Z" fill="#121214"/>
<path fill-rule="evenodd" clip-rule="evenodd" d="M5.30198 11.0637C5.76445 11.0637 6.13911 11.4351 6.13911 11.8934V20.7444C6.13911 21.2027 5.76445 21.5741 5.30198 21.5741C4.83951 21.5741 4.46484 21.2027 4.46484 20.7444V11.8934C4.46484 11.4351 4.83951 11.0637 5.30198 11.0637Z" fill="#EFEFEF"/>
<path fill-rule="evenodd" clip-rule="evenodd" d="M3.34912 13C3.34912 12.5416 3.72379 12.1703 4.18626 12.1703H6.41878C6.88125 12.1703 7.25591 12.5416 7.25591 13C7.25591 13.4584 6.88125 13.8297 6.41878 13.8297H4.18626C3.72379 13.8297 3.34912 13.4584 3.34912 13Z" fill="#486472"/>
<path fill-rule="evenodd" clip-rule="evenodd" d="M3.34912 13C3.34912 12.5416 3.72379 12.1703 4.18626 12.1703H6.41878C6.88125 12.1703 7.25591 12.5416 7.25591 13C7.25591 13.4584 6.88125 13.8297 6.41878 13.8297H4.18626C3.72379 13.8297 3.34912 13.4584 3.34912 13Z" fill="#72727C"/>
<path fill-rule="evenodd" clip-rule="evenodd" d="M10.0464 4.70239C10.0464 4.24402 10.4211 3.87268 10.8835 3.87268H13.116C13.5785 3.87268 13.9532 4.24402 13.9532 4.70239C13.9532 5.16076 13.5785 5.53211 13.116 5.53211H10.8835C10.4211 5.53211 10.0464 5.16076 10.0464 4.70239Z" fill="#72727C"/>
<path d="M8.93018 11.8939C8.93018 11.4356 9.30484 11.0642 9.76731 11.0642H13.1163C13.5788 11.0642 13.9535 11.4356 13.9535 11.8939V15.2133C13.9535 15.6716 13.5788 16.043 13.1163 16.043H9.76731C9.30484 16.043 8.93018 15.6716 8.93018 15.2133V11.8939Z" fill="#D6FFE1"/>
<path d="M8.93018 18.5321C8.93018 18.0737 9.30484 17.7024 9.76731 17.7024H13.1163C13.5788 17.7024 13.9535 18.0737 13.9535 18.5321V21.8515C13.9535 22.3098 13.5788 22.6812 13.1163 22.6812H9.76731C9.30484 22.6812 8.93018 22.3098 8.93018 21.8515V18.5321Z" fill="#D6FFE1"/>
<path d="M15.6284 11.8939C15.6284 11.4356 16.0031 11.0642 16.4656 11.0642H19.8146C20.2771 11.0642 20.6517 11.4356 20.6517 11.8939V15.2133C20.6517 15.6716 20.2771 16.043 19.8146 16.043H16.4656C16.0031 16.043 15.6284 15.6716 15.6284 15.2133V11.8939Z" fill="#D6FFE1"/>
<path d="M15.6284 18.5321C15.6284 18.0737 16.0031 17.7024 16.4656 17.7024H19.8146C20.2771 17.7024 20.6517 18.0737 20.6517 18.5321V21.8515C20.6517 22.3098 20.2771 22.6812 19.8146 22.6812H16.4656C16.0031 22.6812 15.6284 22.3098 15.6284 21.8515V18.5321Z" fill="#D6FFE1"/>
<path d="M18.6978 2.76599C17.6187 2.76599 16.7441 3.63279 16.7441 4.70232C16.7441 5.77185 17.6187 6.63865 18.6978 6.63865C19.7769 6.63865 20.6514 5.77185 20.6514 4.70232C20.6514 3.63279 19.7769 2.76599 18.6978 2.76599Z" fill="#72727C"/>
</g>
<defs>
<clipPath id="clip0_1724_16557">
<rect width="24" height="26" fill="white"/>
</clipPath>
</defs>
</svg>
