<?xml version="1.0" encoding="UTF-8"?>
<svg id="_레이어_2" data-name="레이어_2" xmlns="http://www.w3.org/2000/svg" viewBox="0 0 496.88 513.91">
  <defs>
    <style>
      .cls-1 {
        fill: #72727c;
      }

      .cls-2 {
        fill: #ffe7a0;
      }

      .cls-2, .cls-3 {
        fill-rule: evenodd;
      }

      .cls-3 {
        fill: #121214;
      }
    </style>
  </defs>
  <g id="Capa_1">
    <g>
      <path class="cls-1" d="M327.75,205.1c.27-5.1-1.64-10.08-5.25-13.69-3.61-3.61-8.59-5.52-13.69-5.25l-268.91,14.15c-36.35,1.91-53.26,45.98-27.52,71.72l229.5,229.5c25.74,25.74,69.8,8.83,71.72-27.52l14.15-268.91h0Z"/>
      <path class="cls-3" d="M432.31,64.09c7.59,6.43,8.53,17.8,2.1,25.4l-170.82,201.65c-6.43,7.59-17.8,8.53-25.39,2.1-7.59-6.43-8.54-17.8-2.1-25.4l170.82-201.65c6.43-7.59,17.8-8.53,25.4-2.1Z"/>
      <path class="cls-1" d="M483.12,10.93c-17.18-15.62-43.77-14.35-59.39,2.83l-32.32,35.56c-15.62,17.18-14.35,43.77,2.83,59.39,17.18,15.62,43.77,14.35,59.39-2.83l32.32-35.56c15.62-17.18,14.35-43.77-2.83-59.39Z"/>
      <path class="cls-2" d="M156.14,298.31c7.04-7.04,18.45-7.04,25.48,0l33.98,33.98c7.04,7.04,7.04,18.45,0,25.48-7.04,7.04-18.45,7.04-25.48,0l-33.98-33.98c-7.04-7.04-7.04-18.45,0-25.48Z"/>
    </g>
  </g>
</svg>