<svg width="26" height="23" viewBox="0 0 26 23" fill="none" xmlns="http://www.w3.org/2000/svg">
<g clip-path="url(#clip0_1724_16649)">
<path d="M10.3062 18.2269H15.6936V22.4717H10.3062V18.2269Z" fill="#72727C"/>
<path d="M0 0H26V19.736H0V0Z" fill="#72727C"/>
<path d="M3.90186 21.4923H22.0963V23H3.90186V21.4923Z" fill="#72727C"/>
<path d="M3.89062 4.24341H5.4187V9.00246H3.89062V4.24341Z" fill="#EFEFEF"/>
<path d="M3.26123 6.6925H6.04679V8.20017H3.26123V6.6925Z" fill="#121214"/>
<path d="M8.04492 4.24341H9.57299V9.00246H8.04492V4.24341Z" fill="#EFEFEF"/>
<path d="M7.41699 5.6344H10.2026V7.14207H7.41699V5.6344Z" fill="#121214"/>
<path d="M12.1987 4.24341H13.7268V9.00246H12.1987V4.24341Z" fill="#EFEFEF"/>
<path d="M11.5708 4.89673H14.3564V6.4044H11.5708V4.89673Z" fill="#121214"/>
<path d="M4.00586 13.739H21.9938V15.2467H4.00586V13.739Z" fill="#121214"/>
<path d="M3.24121 13.1587H4.76928V15.827H3.24121V13.1587Z" fill="#121214"/>
<path d="M12.2358 12.5587H13.7639V16.4269H12.2358V12.5587Z" fill="#121214"/>
<path d="M12.9995 13.739H21.9928V15.2467H12.9995V13.739Z" fill="#121214"/>
<path d="M21.229 13.1587H22.7571V15.827H21.229V13.1587Z" fill="#121214"/>
<path d="M22.7587 4.59039V3.88222C22.7587 3.61526 22.5465 3.39887 22.2773 3.38342C21.0953 3.31597 19.872 3.53095 18.6943 4.02976C18.5091 4.10844 18.3924 4.2897 18.3924 4.48782V5.82266V7.957C18.0791 7.94154 17.7316 8.07222 17.4582 8.342C17.0067 8.78741 16.9341 9.43516 17.2944 9.79065C17.6547 10.1461 18.3126 10.0745 18.7626 9.62906C19.0076 9.38739 19.14 9.0867 19.1528 8.80427H19.1557V5.63297C19.1557 5.5585 19.2041 5.48965 19.2753 5.46577C20.1155 5.17913 20.9714 5.033 21.8131 5.02878C21.9128 5.02878 21.9939 5.10747 21.9939 5.20582V7.36967C21.6806 7.35421 21.3332 7.48489 21.0597 7.75467C20.6083 8.20008 20.5357 8.84783 20.896 9.20332C21.2563 9.55881 21.9142 9.48715 22.3642 9.04173C22.6092 8.80006 22.7416 8.49937 22.7544 8.21694H22.7573V4.58899L22.7587 4.59039Z" fill="#D6FFE1"/>
</g>
<defs>
<clipPath id="clip0_1724_16649">
<rect width="26" height="23" fill="white"/>
</clipPath>
</defs>
</svg>
