<svg width="26" height="26" viewBox="0 0 26 26" fill="none" xmlns="http://www.w3.org/2000/svg">
<g clip-path="url(#clip0_1724_16586)">
<path d="M6.65124 24.1864H9.67442H11.4885H14.5117H16.3253H19.349H21.1626H24.1862V18.7441H1.81396V24.1864H4.83715H6.65124Z" fill="#97979C"/>
<path d="M6.65153 21.6506C6.65153 21.1498 6.24553 20.7438 5.74471 20.7438C5.24389 20.7438 4.83789 21.1498 4.83789 21.6506V24.1863H6.65198V21.6506H6.65153Z" fill="#FFE7A0"/>
<path d="M10.5811 20.7438C10.0803 20.7438 9.67432 21.1498 9.67432 21.6506V24.1863H11.4884V21.6506C11.4884 21.1498 11.0824 20.7438 10.5816 20.7438H10.5811Z" fill="#FFE7A0"/>
<path d="M15.4185 20.7438C14.9177 20.7438 14.5117 21.1498 14.5117 21.6506V24.1863H16.3258V21.6506C16.3258 21.1498 15.9198 20.7438 15.419 20.7438H15.4185Z" fill="#FFE7A0"/>
<path d="M20.2559 20.7438C19.7551 20.7438 19.3491 21.1498 19.3491 21.6506V24.1863H21.1632V21.6506C21.1632 21.1498 20.7572 20.7438 20.2564 20.7438H20.2559Z" fill="#FFE7A0"/>
<path d="M0 17.8372V25.0931C0 25.594 0.406 26 0.906822 26H25.0932C25.594 26 26 25.594 26 25.0931V17.8372C26 17.3364 25.594 16.9304 25.0932 16.9304H0.906822C0.406 16.9304 0 17.3364 0 17.8372ZM1.81409 18.7441H24.1864V24.1859H1.81409V18.7441Z" fill="#72727C"/>
<path fill-rule="evenodd" clip-rule="evenodd" d="M5.74409 0C2.57178 0 0 2.57178 0 5.74409V17.8373C0 18.3381 0.406 18.7441 0.906822 18.7441H25.0932C25.594 18.7441 26 18.3381 26 17.8373V10.5814C26 10.0805 25.594 9.67454 25.0932 9.67454H13.9073V5.74409C13.9073 2.57178 11.3355 0 8.16273 0H5.74409Z" fill="#121214"/>
</g>
<defs>
<clipPath id="clip0_1724_16586">
<rect width="26" height="26" fill="white"/>
</clipPath>
</defs>
</svg>
