<svg width="18" height="25" viewBox="0 0 18 25" fill="none" xmlns="http://www.w3.org/2000/svg">
<g clip-path="url(#clip0_1724_16616)">
<path d="M11.242 0H3.66813C1.64207 0 0 1.67612 0 3.7442V21.2543C0 23.3224 1.64207 24.9985 3.66813 24.9985H14.3319C16.3579 24.9985 18 23.3224 18 21.2543V7.18033L11.242 0Z" fill="#121214"/>
<path d="M13.7251 11.9174V9.89052C13.8327 9.77156 13.9387 9.64803 14.0403 9.51992C14.7456 8.63686 15.1565 7.72331 15.2969 6.72587C15.4568 5.59422 15.1012 4.60746 14.1494 4.59526C13.4666 4.58916 12.9182 5.22514 12.9182 5.99991V9.48331C12.4969 9.9134 12.0247 10.3084 11.5451 10.6836C10.2557 11.6932 9.64157 12.7761 9.67145 13.9947C9.71627 15.8416 10.9265 17.1837 12.5492 17.1837C12.5492 17.1837 12.5552 17.1837 12.5581 17.1837H12.9182V19.0139C12.9182 19.2686 12.7374 19.4775 12.5148 19.4775C12.2922 19.4775 12.1114 19.2701 12.1114 19.0139V18.9513C12.1114 18.6951 11.9306 18.4877 11.708 18.4877C11.4853 18.4877 11.3046 18.6951 11.3046 18.9513C11.3046 19.839 11.8813 20.4033 12.5148 20.4033C13.1812 20.4033 13.7251 19.7795 13.7251 19.0139V17.1852C14.9264 17.1014 15.8826 15.9514 15.8826 14.5513C15.8826 13.1513 14.9279 12.0013 13.7251 11.9174ZM13.7251 6.00143C13.7251 5.51491 14.2376 5.41121 14.4019 5.6354C14.52 5.79554 14.5588 6.16615 14.5005 6.57946C14.3974 7.30542 14.1165 7.94293 13.7251 8.5179V6.00296V6.00143ZM12.9182 12.0257C11.9754 12.3536 11.2866 13.3633 11.2866 14.5529C11.2866 14.8091 11.4674 15.0165 11.69 15.0165C11.9127 15.0165 12.0935 14.8091 12.0935 14.5529C12.0935 13.8833 12.4296 13.3023 12.9197 13.0201V16.261H12.5507C11.3628 16.2595 10.5112 15.3185 10.4783 13.9703C10.4574 13.0811 10.94 12.2804 11.9993 11.4507C12.2922 11.2204 12.606 10.9673 12.9182 10.6882V12.0257ZM13.7251 16.258V12.8478C14.4811 12.9301 15.0758 13.6637 15.0758 14.5529C15.0758 15.442 14.4811 16.1771 13.7251 16.258Z" fill="#D6FFE1"/>
<path d="M4.26876 14.2036V15.7577H8.97084C9.19347 15.7577 9.37426 15.9651 9.37426 16.2214C9.37426 16.4776 9.19347 16.685 8.97084 16.685H4.26876V18.2391H10.1109C10.3335 18.2391 10.5143 18.4465 10.5143 18.7028C10.5143 18.959 10.3335 19.1664 10.1109 19.1664H2.52061C2.29798 19.1664 2.11719 18.959 2.11719 18.7028V6.29885C2.11719 6.04262 2.29798 5.83521 2.52061 5.83521H10.6622C10.8848 5.83521 11.0656 6.04262 11.0656 6.29885C11.0656 6.55507 10.8848 6.76249 10.6622 6.76249H4.26876V8.3166" fill="#9C9C9C"/>
<path d="M4.26855 9.24231V10.7964H9.24706C9.46968 10.7964 9.65048 11.0038 9.65048 11.2601C9.65048 11.5163 9.46968 11.7237 9.24706 11.7237H4.26855V13.2778" fill="#9C9C9C"/>
<path d="M11.2422 3.4346C11.2422 5.50268 12.8843 7.17881 14.9103 7.17881H18.0002L11.2422 0V3.4346Z" fill="#72727C"/>
</g>
<defs>
<clipPath id="clip0_1724_16616">
<rect width="18" height="25" fill="white"/>
</clipPath>
</defs>
</svg>
