<svg width="26" height="25" viewBox="0 0 26 25" fill="none" xmlns="http://www.w3.org/2000/svg">
<g clip-path="url(#clip0_1724_16603)">
<path d="M3.69986 0H14.4558C16.4994 0 18.1557 1.67612 18.1557 3.7442V21.2543C18.1557 23.3224 16.4994 24.9985 14.4558 24.9985H3.69986C1.65627 24.9985 0 23.3224 0 21.2543V3.7442C0 1.67612 1.65627 0 3.69986 0Z" fill="#121214"/>
<path d="M11.8909 7.74004C12.4428 7.74004 12.8901 7.28767 12.8901 6.72964C12.8901 6.17161 12.4428 5.71924 11.8909 5.71924L2.73398 5.71924C2.18215 5.71924 1.73479 6.17161 1.73479 6.72964C1.73479 7.28767 2.18215 7.74004 2.73398 7.74004H11.8909Z" fill="#72727C"/>
<path d="M11.8304 19.2853C12.3822 19.2853 12.8296 18.833 12.8296 18.2749C12.8296 17.7169 12.3822 17.2645 11.8304 17.2645H5.08475C4.53291 17.2645 4.08556 17.7169 4.08556 18.2749C4.08556 18.833 4.53291 19.2853 5.08475 19.2853H11.8304Z" fill="#72727C"/>
<path d="M8.33237 11.4904H2.97624C2.4244 11.4904 1.97705 11.9427 1.97705 12.5008C1.97705 13.0588 2.4244 13.5112 2.97624 13.5112H8.33237C8.88421 13.5112 9.33156 13.0588 9.33156 12.5008C9.33156 11.9427 8.88421 11.4904 8.33237 11.4904Z" fill="#72727C"/>
<path d="M7.09059 5.28765C6.76958 4.96279 6.32952 4.78588 5.87438 4.7996C5.64531 4.81485 5.42076 4.72792 5.25799 4.56473C5.09523 4.40002 5.01083 4.17277 5.0244 3.94095C5.0244 3.70303 4.8345 3.51086 4.5994 3.51086C4.3643 3.51086 4.17441 3.70303 4.17441 3.94095V7.88342C3.71324 7.71871 3.19782 7.83462 2.84818 8.18693C2.48347 8.55601 2.37496 9.10963 2.57239 9.59157C2.76982 10.0735 3.23399 10.3877 3.74941 10.3877C4.45322 10.3877 5.02289 9.81119 5.02289 9.09896V5.45846C5.28512 5.59725 5.57749 5.66588 5.87288 5.65978C6.10195 5.64453 6.32651 5.73146 6.48927 5.89617C6.65203 6.06089 6.73643 6.28813 6.72287 6.51995C6.72287 6.75787 6.91276 6.95004 7.14786 6.95004C7.38296 6.95004 7.57285 6.75787 7.57285 6.51995C7.58642 6.05936 7.4116 5.61555 7.09059 5.28917V5.28765Z" fill="#FFE7A0"/>
<path d="M11.5036 13.3312V12.6251C11.5036 12.3597 11.2971 12.1416 11.0349 12.1264C9.88496 12.0592 8.69437 12.2743 7.54749 12.7715C7.36815 12.8493 7.25361 13.0308 7.25361 13.2275V14.5589V16.6896C6.94918 16.6728 6.61009 16.8055 6.34485 17.0739C5.90629 17.5177 5.83546 18.1659 6.18661 18.5212C6.53775 18.8766 7.17675 18.8049 7.61682 18.3611C7.85494 18.1201 7.98304 17.8197 7.9966 17.5375H7.99811V14.3713C7.99811 14.2966 8.04483 14.2295 8.11415 14.2051C8.93249 13.9184 9.76439 13.7735 10.5827 13.7689C10.6807 13.7689 10.7591 13.8467 10.7591 13.9458V16.1054C10.4546 16.0886 10.1155 16.2213 9.8503 16.4898C9.41174 16.9336 9.34091 17.5818 9.69205 17.9371C10.0432 18.2925 10.6822 18.2208 11.1223 17.777C11.3604 17.536 11.4885 17.2355 11.502 16.9534H11.5036V13.3327V13.3312Z" fill="#FFE7A0"/>
<path d="M13.0089 8.8427C12.6291 9.27889 12.602 9.91335 12.9215 10.3953C13.3299 11.013 13.5559 11.7435 13.5559 12.5C13.5559 13.2564 13.3314 13.9885 12.9215 14.6047C12.602 15.0866 12.6291 15.7226 13.0089 16.1572C13.5409 16.7673 14.5069 16.7215 14.959 16.0505C15.6583 15.0134 16.0426 13.778 16.0426 12.5C16.0426 11.2219 15.6583 9.98655 14.959 8.94946C14.5054 8.27688 13.5409 8.23112 13.0089 8.84118V8.8427Z" fill="#9C9C9C"/>
<path d="M16.3544 5.00396C15.9399 5.48133 15.9414 6.19357 16.3544 6.67094C17.7484 8.27233 18.5306 10.3435 18.5306 12.5015C18.5306 14.6596 17.7484 16.7307 16.3544 18.3306C15.9399 18.8064 15.9384 19.5202 16.3544 19.996C16.8532 20.5695 17.7333 20.5588 18.2307 19.9854C20.0166 17.928 21.0203 15.2696 21.0203 12.5015C21.0203 9.73341 20.0181 7.07357 18.2307 5.01769C17.7318 4.44424 16.8532 4.43356 16.3544 5.00549V5.00396Z" fill="#9C9C9C"/>
<path d="M19.664 1.20638C19.239 1.6929 19.245 2.43259 19.6896 2.9008C22.1295 5.47218 23.51 8.91136 23.51 12.5015C23.51 16.0917 22.1295 19.5309 19.6896 22.1022C19.245 22.5705 19.239 23.3102 19.664 23.7967C20.1462 24.3488 20.9917 24.3671 21.4951 23.8363C24.3721 20.7998 25.9982 16.7399 25.9982 12.5015C25.9982 8.26318 24.3721 4.20479 21.4951 1.16673C20.9917 0.634455 20.1447 0.652757 19.664 1.20638Z" fill="#9C9C9C"/>
</g>
<defs>
<clipPath id="clip0_1724_16603">
<rect width="26" height="25" fill="white"/>
</clipPath>
</defs>
</svg>
