<svg width="21" height="26" viewBox="0 0 21 26" fill="none" xmlns="http://www.w3.org/2000/svg">
<g clip-path="url(#clip0_1724_16572)">
<path d="M20.9762 5.37726C20.3425 10.497 20.2079 15.6636 20.5745 20.8029C19.9021 21.6928 19.1211 22.4945 18.2499 23.1865C17.9573 23.4184 17.6545 23.6389 17.3425 23.8456C17.1039 24.0037 16.8593 24.1547 16.61 24.2969C16.1078 24.5845 15.5848 24.839 15.044 25.058C13.5442 25.665 11.9073 25.9994 10.1925 25.9994C9.54812 25.9994 8.91448 25.952 8.2951 25.8603C7.65228 25.766 7.02425 25.6238 6.41558 25.4383C6.10309 25.3429 5.79519 25.2358 5.49239 25.1178C5.08814 24.9601 4.69358 24.7823 4.30921 24.586C4.0844 24.4706 3.86265 24.3495 3.64549 24.2217C3.33606 24.0403 3.03427 23.8461 2.74217 23.6395C1.78992 22.9691 0.929939 22.174 0.186694 21.2769C-0.168616 15.4595 -0.0167048 9.6169 0.641919 3.8196C0.700542 3.30485 0.763244 2.79009 0.829514 2.27637C1.01864 0.817123 2.36086 -0.197959 3.79893 0.0323668C4.4861 0.142119 5.17276 0.252387 5.85993 0.362139C9.94421 1.01602 14.0285 1.66989 18.1128 2.32377C18.3483 2.36139 18.5838 2.399 18.8193 2.43662C20.2008 2.65767 21.1536 3.94842 20.9797 5.3515C20.9787 5.35974 20.9777 5.3685 20.9767 5.37675L20.9762 5.37726Z" fill="#121214"/>
<path d="M17.8808 7.1299L17.8809 7.12939C17.9615 6.55547 17.5666 6.02416 16.9988 5.94268L4.29319 4.11948C3.72539 4.038 3.19975 4.43721 3.11915 5.01114L3.11907 5.01165C3.03847 5.58557 3.43341 6.11688 4.00121 6.19836L16.7068 8.02156C17.2746 8.10304 17.8002 7.70383 17.8808 7.1299Z" fill="#72727C"/>
<path d="M17.8808 13.891L17.8809 13.8905C17.9615 13.3166 17.5666 12.7853 16.9988 12.7038L4.29319 10.8806C3.72539 10.7991 3.19975 11.1983 3.11915 11.7722L3.11907 11.7728C3.03847 12.3467 3.43341 12.878 4.00121 12.9595L16.7068 14.7827C17.2746 14.8641 17.8002 14.4649 17.8808 13.891Z" fill="#72727C"/>
<path d="M17.8808 19.8034L17.8809 19.8029C17.9615 19.2289 17.5666 18.6976 16.9988 18.6161L4.29319 16.7929C3.72539 16.7115 3.19975 17.1107 3.11915 17.6846L3.11907 17.6851C3.03847 18.259 3.43341 18.7903 4.00121 18.8718L16.7068 20.695C17.2746 20.7765 17.8002 20.3773 17.8808 19.8034Z" fill="#72727C"/>
<path d="M7.81556 11.0947V10.6315C7.81556 10.4573 7.68047 10.3146 7.50817 10.3048C6.7532 10.2605 5.97172 10.4017 5.21981 10.7284C5.10205 10.7794 5.02661 10.8979 5.02661 11.0277V11.9011V13.2975C4.82678 13.2872 4.60452 13.3732 4.43017 13.5495C4.14215 13.8406 4.09576 14.2652 4.32618 14.4976C4.5566 14.7305 4.97665 14.6831 5.26416 14.3919C5.42015 14.2343 5.50477 14.0369 5.51344 13.8524H5.51497V11.7769C5.51497 11.728 5.54555 11.6837 5.59143 11.6677C6.12822 11.4801 6.67469 11.3848 7.21199 11.3817C7.27571 11.3817 7.32771 11.4333 7.32771 11.4977V12.9136C7.12788 12.9033 6.90562 12.9894 6.73128 13.1656C6.44326 13.4567 6.39687 13.8813 6.62729 14.1137C6.8577 14.3466 7.27775 14.2992 7.56526 14.0081C7.72176 13.8504 7.80587 13.653 7.81454 13.4686H7.81607V11.0952L7.81556 11.0947Z" fill="#FFE7A0"/>
<path d="M14.4934 17.5372V17.074C14.4934 16.8998 14.3583 16.7571 14.186 16.7473C13.431 16.703 12.6496 16.8442 11.8976 17.1709C11.7799 17.2219 11.7044 17.3404 11.7044 17.4702V18.3436V19.74C11.5046 19.7297 11.2823 19.8158 11.108 19.992C10.82 20.2831 10.7736 20.7077 11.0035 20.9401C11.2339 21.173 11.654 21.1256 11.9415 20.8344C12.0975 20.6768 12.1821 20.4794 12.1908 20.295H12.1923V18.2194C12.1923 18.1705 12.2229 18.1262 12.2688 18.1102C12.8055 17.9227 13.352 17.8273 13.8893 17.8242C13.953 17.8242 14.005 17.8758 14.005 17.9402V19.3561C13.8052 19.3458 13.5829 19.4319 13.4086 19.6081C13.1206 19.8992 13.0742 20.3238 13.3041 20.5562C13.5345 20.7891 13.9546 20.7417 14.2421 20.4506C14.3986 20.2929 14.4827 20.0955 14.4914 19.9111H14.4929V17.5377L14.4934 17.5372Z" fill="#FFE7A0"/>
<path d="M10.6037 4.38599C10.6037 4.28654 10.5185 4.2077 10.4202 4.21852C9.91753 4.27314 9.41184 4.40711 8.91838 4.62147C8.80062 4.67299 8.72518 4.7915 8.72518 4.92084V7.1906C8.52535 7.17978 8.30309 7.26583 8.12874 7.44205C7.84123 7.73318 7.79434 8.15776 8.02475 8.39066C8.25517 8.62357 8.67522 8.57616 8.96324 8.28555C9.11974 8.12736 9.20385 7.93053 9.21201 7.74555H9.21354V5.67004C9.21354 5.62109 9.24412 5.57678 9.29 5.5608C9.67539 5.4258 10.0659 5.33872 10.4548 5.29956C10.54 5.2908 10.6042 5.21866 10.6042 5.13261V4.3865L10.6037 4.38599Z" fill="#FFE7A0"/>
<path d="M14.8009 10.1101C14.8009 10.0107 14.7158 9.93182 14.6174 9.94265C14.1148 9.99726 13.6091 10.1312 13.1156 10.3456C12.9979 10.3971 12.9224 10.5156 12.9224 10.645V12.9147C12.7226 12.9039 12.5004 12.99 12.326 13.1667C12.0385 13.4578 11.9916 13.8824 12.222 14.1153C12.4524 14.3482 12.8725 14.3008 13.1605 14.0102C13.317 13.852 13.4011 13.6552 13.4098 13.4702H13.4113V11.3947C13.4113 11.3457 13.4419 11.3014 13.4878 11.2854C13.8732 11.1504 14.2636 11.0634 14.6526 11.0242C14.7377 11.0154 14.802 10.9433 14.802 10.8572V10.1111L14.8009 10.1101Z" fill="#FFE7A0"/>
<path d="M18.7345 4.07886C18.7345 3.97941 18.6494 3.90057 18.551 3.9114C18.0484 3.96601 17.5427 4.09998 17.0492 4.31434C16.9315 4.36586 16.856 4.48438 16.856 4.61371V6.88347C16.6562 6.87265 16.4339 6.9587 16.2596 7.13492C15.9721 7.42605 15.9252 7.85063 16.1556 8.08354C16.386 8.31644 16.8061 8.26903 17.0941 7.97842C17.2506 7.82023 17.3347 7.6234 17.3434 7.43842H17.3449V5.36291C17.3449 5.31396 17.3755 5.26965 17.4214 5.25367C17.8068 5.11867 18.1972 5.03159 18.5862 4.99243C18.6708 4.98367 18.7356 4.91153 18.7356 4.82548V4.07937L18.7345 4.07886Z" fill="#FFE7A0"/>
</g>
<defs>
<clipPath id="clip0_1724_16572">
<rect width="21" height="26" fill="white"/>
</clipPath>
</defs>
</svg>
