<svg width="15" height="26" viewBox="0 0 15 26" fill="none" xmlns="http://www.w3.org/2000/svg">
<g clip-path="url(#clip0_1724_16534)">
<path fill-rule="evenodd" clip-rule="evenodd" d="M6.52197 25.0367V18.9379H8.47837V25.0367C8.47837 25.5684 8.04037 25.9996 7.50017 25.9996C6.95997 25.9996 6.52197 25.5684 6.52197 25.0367Z" fill="#121214"/>
<path d="M3.58672 0C1.606 0 0 1.58087 0 3.5306V16.3701C0 18.3203 1.606 19.9007 3.58672 19.9007H11.4128C13.394 19.9007 14.9995 18.3199 14.9995 16.3701V3.5306C15 1.58087 13.394 0 11.4133 0H3.58672Z" fill="#72727C"/>
<path fill-rule="evenodd" clip-rule="evenodd" d="M15 4.17297H10.1085C9.74839 4.17297 9.45639 4.4604 9.45639 4.8149C9.45639 5.1694 9.74839 5.45683 10.1085 5.45683H15V4.17297ZM15 8.98743H10.1085C9.56833 8.98743 9.13033 9.41858 9.13033 9.95033C9.13033 10.4821 9.56833 10.9132 10.1085 10.9132H15V8.98743ZM15 14.1233H10.1085C9.56833 14.1233 9.13033 14.5545 9.13033 15.0862C9.13033 15.618 9.56833 16.0491 10.1085 16.0491H15V14.1233ZM0 16.0491H4.89147C5.43167 16.0491 5.86967 15.618 5.86967 15.0862C5.86967 14.5545 5.43167 14.1233 4.89147 14.1233H0V16.0491ZM0 10.9132H4.89147C5.43167 10.9132 5.86967 10.4821 5.86967 9.95033C5.86967 9.41858 5.43167 8.98743 4.89147 8.98743H0V10.9132ZM0 5.45683H4.89147C5.25161 5.45683 5.54361 5.1694 5.54361 4.8149C5.54361 4.4604 5.25161 4.17297 4.89147 4.17297H0V5.45683Z" fill="#D6FFE1"/>
<path fill-rule="evenodd" clip-rule="evenodd" d="M0 4.17297V5.45683H4.89147C5.25161 5.45683 5.54361 5.1694 5.54361 4.8149C5.54361 4.4604 5.25161 4.17297 4.89147 4.17297H0ZM0 8.98743V10.9132H4.89147C5.43167 10.9132 5.86967 10.4821 5.86967 9.95033C5.86967 9.41858 5.43167 8.98743 4.89147 8.98743H0ZM0 14.1233V16.0491H4.89147C5.43167 16.0491 5.86967 15.618 5.86967 15.0862C5.86967 14.5545 5.43167 14.1233 4.89147 14.1233H0Z" fill="#D6FFE1"/>
</g>
<defs>
<clipPath id="clip0_1724_16534">
<rect width="15" height="26" fill="white"/>
</clipPath>
</defs>
</svg>
