<?xml version="1.0" encoding="UTF-8"?>
<svg id="_레이어_2" data-name="레이어_2" xmlns="http://www.w3.org/2000/svg" viewBox="0 0 418.31 428.77">
  <defs>
    <style>
      .cls-1 {
        fill: #ffe7a0;
      }

      .cls-2 {
        fill: #72727c;
        fill-rule: evenodd;
      }

      .cls-3 {
        fill: #121214;
      }
    </style>
  </defs>
  <g id="Capa_1">
    <g>
      <path class="cls-2" d="M156.76,151.85c0-8.12,6.58-14.7,14.7-14.7h19.59c8.12,0,14.7,6.58,14.7,14.7s-6.58,14.7-14.7,14.7h-19.59c-8.12,0-14.7-6.58-14.7-14.7Z"/>
      <path class="cls-2" d="M156.76,93.07c0-8.12,6.58-14.7,14.7-14.7h29.39c8.12,0,14.7,6.58,14.7,14.7s-6.58,14.7-14.7,14.7h-29.39c-8.12,0-14.7-6.58-14.7-14.7Z"/>
      <path class="cls-3" d="M298.94,0C239.66,0,190.8,46.51,187.89,105.73l-10.55,214.53h-.02s-17.45-94.64-17.45-94.64c-5.49-29.75-38.52-45.38-65-30.75l-77.98,43.07c-28.2,15.58-19.18,58.25,12.91,61.08,7.61.67,18.24,6.75,29.17,17.86,10.54,10.72,18.98,23.7,22.85,33.62,16.75,42.87,55.97,72.91,101.68,78.02,10.19,1.14,23.65-1.72,34.69-5.21,11.15-3.53,23.55-8.89,31.2-15.19,9.73-8.03,17.64-20.27,23.17-32.25,5.58-12.09,9.59-25.71,10.26-37.6l12.8-226.99c.51-9.08,3.77-12.93,8.3-15.64,5.93-3.54,15.13-5.6,28.5-7.1,3.41-.38,6.83-.97,10.2-1.78,7.02-1.68,13.52-3.03,19.66-4.31l2.41-.5c6.71-1.4,13.23-2.8,19.05-4.45,11.17-3.17,23.65-8.26,30.54-20.64,3.97-7.14,4.03-14.76,4.03-18.79V14.7c0-8.12-6.58-14.7-14.7-14.7h-104.68Z"/>
      <path class="cls-1" d="M303.72,95.75V0h29.39v88.45c-.23.03-.46.05-.7.08-13.36,1.5-22.57,3.56-28.5,7.1-.07.04-.13.08-.2.12Z"/>
    </g>
  </g>
</svg>